<svg width="420" height="305" viewBox="0 0 420 305" fill="none" xmlns="http://www.w3.org/2000/svg">
<g clip-path="url(#clip0)">
<path fill-rule="evenodd" clip-rule="evenodd" d="M387.269 311.258C378.301 311.286 369.586 311.593 360.593 311.623C324.033 311.745 287.138 311.567 250.446 310.085C240.075 309.666 237.486 309.676 227.161 309.026C221.064 309.004 202.75 308.5 203.667 300.193C204.072 284.722 207.901 269.316 209.107 253.886C211.422 224.88 213.393 194.967 225.017 167.837C227.707 161.358 233.485 157.121 239.205 153.311C244.942 149.201 246.349 144.638 251.644 139.995C252.763 139.013 259.12 138.613 262.54 136.123C267.519 132.498 269.987 126.564 271.845 125.553C273.211 124.81 273.186 119.682 275.926 117.867C279.602 115.431 291.316 113.62 295.578 113.281C299.668 112.956 306.783 113.639 310.621 115.138C317.022 117.636 319.574 122.403 322.393 128.543C359.632 140.056 393.669 159.551 404.239 198.874C413.355 231.854 413.689 267.211 410.168 301.036C409.463 303.509 409.957 307.386 407.82 309.026C415.246 309.452 388.277 310.984 387.269 311.258Z" fill="white"/>
<path fill-rule="evenodd" clip-rule="evenodd" d="M217.892 278.694C218.597 278.342 219.332 277.939 220.137 277.911C221.519 277.863 221.52 275.712 220.137 275.761C218.929 275.803 217.869 276.306 216.807 276.837C215.568 277.455 216.658 279.31 217.892 278.694ZM220.137 218.149C219.194 218.15 218.243 218.269 217.519 218.929C217.088 219.321 217.123 220.053 217.519 220.45C217.943 220.874 218.61 220.841 219.04 220.45C218.9 220.577 219.038 220.451 219.089 220.423C219.101 220.416 219.108 220.412 219.111 220.409C219.122 220.406 219.133 220.404 219.15 220.399C219.263 220.371 219.374 220.343 219.487 220.323C219.489 220.328 219.727 220.307 219.783 220.305C219.901 220.301 220.019 220.3 220.137 220.3C220.72 220.3 221.212 219.808 221.212 219.225C221.212 218.644 220.718 218.149 220.137 218.149ZM230.247 242.276C230.555 243.627 232.627 243.052 232.32 241.704C231.873 239.745 231.955 237.738 232.32 235.771C232.572 234.416 230.499 233.841 230.247 235.2C229.809 237.558 229.71 239.925 230.247 242.276ZM232.963 164.974C234.564 164.594 236.148 164.549 237.786 164.548C239.172 164.547 239.17 162.397 237.786 162.397C235.959 162.398 234.176 162.476 232.391 162.9C231.044 163.22 231.618 165.294 232.963 164.974ZM238.33 217.366C239.258 216.902 240.187 216.437 241.116 215.972C242.356 215.353 241.265 213.498 240.031 214.115L237.244 215.509C236.005 216.129 237.095 217.984 238.33 217.366ZM238.716 259.724C239.894 261.423 241.55 262.478 243.538 263.006C244.88 263.361 245.447 261.286 244.11 260.932C242.688 260.555 241.425 259.868 240.573 258.638C239.789 257.507 237.925 258.584 238.716 259.724ZM246.145 183.993C246.464 183.397 246.944 183.146 247.539 183.132C248.923 183.101 248.923 180.95 247.539 180.981C246.182 181.012 244.937 181.694 244.289 182.908C243.636 184.129 245.493 185.215 246.145 183.993ZM259.784 198.614C260.17 199.034 260.917 199.024 261.305 198.614C261.542 198.364 261.741 198.084 261.898 197.777C261.958 197.661 262.014 197.542 262.08 197.429C262.109 197.379 262.142 197.329 262.175 197.28C262.186 197.27 262.21 197.246 262.234 197.22C262.647 196.784 262.637 196.139 262.234 195.699C261.848 195.279 261.101 195.29 260.713 195.699C260.476 195.95 260.276 196.23 260.12 196.537C260.06 196.653 260.004 196.772 259.938 196.885C259.909 196.935 259.876 196.985 259.843 197.034C259.832 197.044 259.808 197.068 259.784 197.093C259.371 197.53 259.381 198.175 259.784 198.614ZM260.931 230.375C262.331 231.016 263.867 231.016 265.267 230.375C265.798 230.133 265.923 229.367 265.653 228.904C265.339 228.368 264.71 228.277 264.182 228.518C263.547 228.809 262.65 228.808 262.016 228.518C261.486 228.276 260.862 228.362 260.545 228.904C260.273 229.37 260.403 230.134 260.931 230.375ZM264.751 252.856C264.992 253.426 265.511 253.729 266.119 253.752C266.721 253.775 267.169 253.241 267.194 252.676C267.21 252.312 267.013 252 266.73 251.807C266.73 251.787 266.729 251.767 266.729 251.747C266.729 251.144 266.237 250.698 265.654 250.672C265.074 250.646 264.579 251.185 264.579 251.747C264.579 252.127 264.603 252.504 264.751 252.856ZM270.298 288.597C272.014 288.625 273.691 289.034 275.407 289.062C276.793 289.084 276.789 286.933 275.407 286.911C273.691 286.883 272.014 286.474 270.298 286.446C268.911 286.424 268.916 288.575 270.298 288.597ZM277.434 150.759C278.438 151.717 279.679 152.188 280.902 152.786C282.142 153.392 283.231 151.536 281.988 150.929C280.951 150.422 279.804 150.048 278.954 149.239C277.951 148.283 276.429 149.803 277.434 150.759ZM280.13 175.552C280.834 175.2 281.569 174.797 282.374 174.769C283.756 174.721 283.758 172.57 282.374 172.619C281.167 172.66 280.107 173.164 279.044 173.695C277.805 174.313 278.895 176.168 280.13 175.552ZM293.056 275.055C293.374 274.459 293.854 274.207 294.45 274.194C295.833 274.163 295.834 272.012 294.45 272.043C293.092 272.074 291.847 272.756 291.199 273.969C290.546 275.191 292.403 276.276 293.056 275.055ZM297.532 228.348C297.96 227.955 297.93 227.225 297.532 226.827C297.068 226.363 296.603 225.898 296.138 225.433C295.714 225.008 295.047 225.039 294.618 225.433C294.19 225.826 294.22 226.556 294.618 226.954C295.083 227.419 295.547 227.883 296.012 228.348C296.437 228.773 297.103 228.742 297.532 228.348ZM302.81 301.142C304.361 301.105 305.815 300.66 307.276 300.174C308.585 299.739 308.02 297.662 306.704 298.1C305.435 298.522 304.16 298.959 302.81 298.991C301.426 299.023 301.426 301.174 302.81 301.142ZM309.776 255.146C311.178 255.107 312.34 254.393 313.323 253.437C314.317 252.47 312.795 250.951 311.803 251.917C311.24 252.464 310.591 252.973 309.776 252.995C308.393 253.034 308.392 255.185 309.776 255.146ZM305.451 195.995C305.434 196.568 305.192 197.181 304.837 197.558C303.887 198.564 305.405 200.087 306.357 199.079C307.143 198.247 307.568 197.134 307.601 195.995C307.641 194.608 305.49 194.614 305.451 195.995ZM321.851 149.149C322.301 148.267 322.891 147.234 323.788 146.747C325.006 146.086 323.919 144.229 322.702 144.89C321.483 145.552 320.611 146.856 319.994 148.063C319.366 149.295 321.222 150.382 321.851 149.149ZM324.638 171.517C325.137 171.503 325.632 171.418 326.113 171.287C326.319 171.231 326.522 171.167 326.728 171.111C326.816 171.087 327.19 171.04 326.96 171.053C327.543 171.022 328.035 170.586 328.035 169.977C328.035 169.418 327.541 168.871 326.96 168.902C326.162 168.945 325.437 169.344 324.638 169.367C323.255 169.406 323.254 171.556 324.638 171.517ZM331.606 205.898H333.928C335.314 205.898 335.311 203.747 333.928 203.747H331.606C330.22 203.747 330.222 205.898 331.606 205.898ZM334.315 300.994C335.019 301.347 335.849 301.681 336.42 302.22C337.426 303.171 338.948 301.652 337.94 300.699C337.214 300.012 336.285 299.58 335.4 299.137C334.879 298.876 334.238 298.994 333.929 299.523C333.65 300.001 333.796 300.735 334.315 300.994ZM339.502 273.818C339.592 273.793 339.687 273.775 339.778 273.763C340.144 273.713 340.526 273.73 340.894 273.73C342.279 273.729 342.277 271.578 340.894 271.579C339.803 271.58 338.668 271.595 337.811 272.359C337.376 272.747 337.418 273.487 337.811 273.88C338.238 274.307 338.898 274.266 339.331 273.88C339.286 273.921 339.442 273.834 339.502 273.818ZM340.894 237.266C340.582 236.622 340.577 236.202 340.577 235.486C340.575 234.1 338.425 234.102 338.426 235.486C338.427 236.526 338.581 237.411 339.038 238.352C339.292 238.877 340.037 239.014 340.508 238.738C341.037 238.429 341.147 237.789 340.894 237.266ZM347.112 186.81C348.359 187.235 349.473 187.835 350.571 188.56C351.73 189.326 352.806 187.462 351.656 186.703C350.403 185.876 349.106 185.22 347.684 184.736C346.368 184.289 345.809 186.367 347.112 186.81ZM354.364 150.61C355.29 150.635 356.247 150.991 357.072 151.392C358.313 151.995 359.402 150.139 358.158 149.535C356.978 148.961 355.688 148.496 354.364 148.459C352.977 148.42 352.983 150.571 354.364 150.61ZM357.616 247.247C357.98 247.264 358.292 247.067 358.485 246.783C358.505 246.783 358.525 246.783 358.544 246.783C359.147 246.783 359.593 246.29 359.62 245.707C359.646 245.127 359.107 244.632 358.544 244.632C358.165 244.632 357.788 244.655 357.436 244.804C356.866 245.045 356.564 245.564 356.54 246.172C356.518 246.774 357.051 247.222 357.616 247.247ZM362.902 172.872C364.222 173.304 364.783 171.226 363.474 170.798C361.936 170.296 360.366 169.907 358.829 169.404C357.508 168.972 356.948 171.05 358.257 171.478C359.794 171.981 361.365 172.37 362.902 172.872ZM367.724 213.471C368.134 214.791 370.208 214.224 369.798 212.899C369.401 211.62 369.372 210.332 369.372 209.003C369.371 207.617 367.221 207.619 367.221 209.003C367.222 210.516 367.273 212.015 367.724 213.471ZM382.102 262.098C382.18 262.633 382.605 263.019 383.16 263.044C383.726 263.07 384.256 262.532 384.235 261.969C384.196 260.886 383.314 260.004 382.231 259.964C381.629 259.942 381.182 260.474 381.156 261.04C381.132 261.589 381.59 262.018 382.102 262.098ZM389.376 200.284C390.513 200.663 391.727 201.024 392.617 201.866C393.624 202.816 395.146 201.297 394.138 200.345C392.963 199.236 391.452 198.712 389.948 198.21C388.63 197.77 388.07 199.848 389.376 200.284ZM394.307 242.068C394.62 242.602 395.252 242.699 395.778 242.454C396.483 242.126 397.262 242.137 398.022 242.137C399.408 242.135 399.406 239.985 398.022 239.986C396.849 239.987 395.767 240.097 394.693 240.597C394.164 240.843 394.035 241.603 394.307 242.068ZM397.093 292.778C397.695 292.8 398.143 292.268 398.168 291.703C398.193 291.154 397.734 290.725 397.222 290.645C397.144 290.109 396.719 289.723 396.164 289.698C395.598 289.673 395.068 290.211 395.089 290.774C395.128 291.857 396.01 292.739 397.093 292.778ZM201.199 300.911C201.565 299.597 202.401 298.535 203.032 297.352C203.244 296.953 203.318 296.705 203.432 296.413C203.588 296.725 203.891 296.96 204.346 296.96C205.219 296.96 206.24 296.904 207.055 297.278C207.585 297.521 208.209 297.434 208.526 296.892C208.798 296.426 208.668 295.663 208.14 295.421C206.939 294.87 205.649 294.81 204.346 294.809C204.024 294.809 203.781 294.927 203.609 295.105C203.111 288.287 203.123 281.464 203.594 274.64C204.097 267.349 205.253 260.202 206.462 253.004C207.048 249.514 207.808 245.99 207.661 242.435C207.513 238.905 206 235.614 207.072 232.073C207.502 230.653 208.238 229.352 208.717 227.949C209.23 226.437 209.185 224.945 208.951 223.38C208.47 220.194 207.672 217.046 208.948 213.935C209.512 212.556 210.427 211.324 210.867 209.899C211.415 208.128 211.34 206.167 211.432 204.331C211.617 200.626 211.665 196.897 211.972 193.2C212.109 191.544 212.407 189.973 213.087 188.454C213.741 186.992 214.711 185.661 215.143 184.109C215.574 182.582 215.611 180.972 215.842 179.41C216.084 177.759 216.463 176.132 216.974 174.546C218.947 168.405 222.562 162.888 226.833 158.104C231.372 153.02 236.799 149.191 242.559 145.624C245.588 143.747 248.617 141.871 251.643 139.995C251.708 140.347 251.932 140.671 252.363 140.815C253.5 141.194 254.714 141.555 255.605 142.396C256.611 143.347 258.133 141.828 257.125 140.876C256.073 139.882 254.751 139.359 253.405 138.899C254.784 138.03 256.178 137.13 257.735 136.627C259.098 136.186 261.108 136.571 262.213 135.571C263.081 134.783 263.355 133.323 263.688 132.253C264.105 130.925 264.465 129.524 264.994 128.233C265.355 127.351 265.879 126.504 266.54 125.821C266.83 124.703 267.363 123.681 268.303 123.06C270.765 121.431 273.789 123.049 274.872 125.372C275.767 125.37 276.711 125.566 277.581 125.62C279.371 125.733 281.164 125.784 282.957 125.778C286.465 125.768 289.975 125.539 293.453 125.074C299.672 124.24 305.707 122.56 311.821 121.251C311.856 121.17 311.897 121.089 311.945 121.009C313.262 118.799 316.544 119.172 318.611 120.008C319.498 120.366 320.401 120.818 320.909 121.657C321.446 122.02 321.911 122.461 322.221 122.926C322.86 123.886 323.355 125.821 324.653 125.983C325.508 126.088 326.376 125.924 327.244 126.047C328.33 126.198 329.303 126.58 330.305 127.015C337.939 130.33 345.83 134.017 354.114 135.302C356.057 135.603 358.036 135.915 359.723 137.004C361.094 137.888 362.154 139.104 363.285 140.257C364.387 141.381 365.295 141.878 366.868 142.08C368.776 142.325 370.429 142.852 371.824 144.239C372.982 145.392 373.738 146.866 374.646 148.205C375.571 149.571 376.928 150.34 378.337 151.133C381.667 153.009 384.768 155.276 387.47 157.994C393.16 163.727 396.606 171.094 400.078 178.272C403.833 186.037 407.343 193.896 409.779 202.188C412.165 210.33 413.584 218.705 414.24 227.158C414.931 236.028 415.028 244.933 415.603 253.808C415.891 258.242 416.108 262.681 416.329 267.117C416.544 271.5 416.858 275.89 416.807 280.278C416.71 288.761 415.015 297.271 412.05 305.213C411.311 307.189 410.491 309.139 409.618 311.059C408.851 312.744 406.231 312.556 405.408 311.059C405.22 310.714 405.072 310.359 404.949 309.999C402.798 310.018 400.627 309.851 398.49 310.05C394.716 310.402 390.935 310.599 387.15 310.833C379.662 311.298 372.16 311.607 364.669 312.035C363.942 312.076 363.215 312.118 362.489 312.161C367.827 295.633 367.135 277.764 367.98 260.575C368.048 259.189 365.897 259.197 365.829 260.575C364.981 277.838 365.703 295.752 360.176 312.307C358.032 312.452 355.891 312.63 353.757 312.89C352.031 313.097 350.297 313.341 348.556 313.255C346.58 313.161 344.65 312.709 342.723 312.317C339.221 311.604 335.848 311.927 332.332 312.365C328.572 312.836 324.798 313.097 321.014 313.261C305.86 313.925 290.604 314.53 275.455 313.516C271.789 313.271 268.131 312.927 264.489 312.459C260.737 311.978 257.025 311.169 253.276 310.709C249.58 310.257 246.182 311.497 242.53 311.725C238.805 311.959 234.979 311.182 231.289 310.736C230.085 310.59 228.88 310.448 227.675 310.307C229.226 299.667 230.109 288.946 230.966 278.23C231.077 276.847 228.925 276.859 228.816 278.23C227.966 288.862 227.103 299.503 225.553 310.06C219.163 309.316 212.767 308.563 206.443 307.405C204.642 307.077 202.852 306.542 201.774 304.934C200.976 303.743 200.815 302.283 201.199 300.911Z" fill="black"/>
<path fill-rule="evenodd" clip-rule="evenodd" d="M249.49 75.2589C250.068 70.1737 249.32 59.5437 249.269 58.8979C248.952 54.8151 250.865 38.6929 254.48 40.1784C260.544 35.3762 268.621 34.3158 276.174 33.8092C291.862 32.7569 308.551 35.1726 320.665 45.7338C326.656 51.2185 332.488 59.1955 332.02 67.5014C337.463 75.3749 345.136 86.1739 338.354 95.3779C336.049 98.3189 332.385 99.4139 329.489 101.641C323.664 106.341 320.01 113.086 314.13 117.758C298.551 131.761 272.099 134.686 256.793 118.759C244.957 107.223 246.87 89.9649 248.952 75.2589C250.352 65.3724 248.361 85.1809 249.49 75.2589Z" fill="white"/>
<path fill-rule="evenodd" clip-rule="evenodd" d="M297.131 12.2433C292.935 11.3964 288.627 10.8694 284.342 11.0281L284.012 11.0409C280.788 11.1698 276.706 11.4549 273.893 13.3301C273.732 13.1677 273.471 13.0844 273.235 13.197C269.893 14.7928 266.217 15.9465 262.699 17.0929C259.196 18.2337 255.562 18.9868 251.89 19.2904C250.509 19.4047 249.327 20.8966 250.202 22.2348C250.41 22.5536 250.612 22.8758 250.814 23.1987C250.477 23.1634 250.139 23.1271 249.802 23.093C248.691 22.9811 247.581 24.1671 247.647 25.2491C247.688 25.9296 247.761 26.602 247.87 27.2664C247.447 27.2575 247.026 27.321 246.62 27.4928C244.562 28.362 244.705 30.8138 244.859 32.6792C245.073 35.2679 246.04 38.0098 247.838 39.9473C246.496 41.3414 245.546 43.0062 244.979 44.9835C244.568 46.4273 244.34 47.9652 244.453 49.4682L244.489 49.9182C244.628 51.5492 244.906 53.355 246.079 54.5283C246.681 55.1333 247.423 55.3537 248.13 55.2838C247.702 59.0426 247.428 62.8229 247.17 66.5898L247.049 68.3901C246.473 77.0961 246.041 85.8591 246.154 94.5791C246.259 102.728 247.869 110.638 252.866 117.255C257.416 123.281 263.95 127.722 271.342 129.411C275.325 130.322 279.391 130.387 283.423 129.806C285.378 129.524 287.345 129.091 289.2 128.408C291.253 127.65 292.728 126.534 294.11 124.862C294.763 124.068 294.449 122.38 293.148 122.539C291.18 122.777 289.383 123.065 287.497 123.647L287.227 123.732C285.348 124.335 283.402 124.784 281.437 124.974C277.413 125.364 273.328 124.972 269.473 123.751C263.197 121.761 257.792 117.328 254.328 111.757C250.215 105.153 249.75 97.6571 249.81 90.0651C249.873 81.7331 250.144 73.3961 250.586 65.073L250.662 63.686C250.895 59.4029 251.121 55.1171 251.32 50.8314C251.382 49.487 251.476 48.1319 251.645 46.7903C253.196 45.8815 254.586 44.6286 255.492 43.0826C257.311 43.8354 259.225 44.3785 260.986 44.8114C265.064 45.8148 269.299 46.0584 273.45 45.4301C274.57 45.8928 275.712 46.2996 276.871 46.6497C277.185 46.7887 277.498 46.9252 277.811 47.0591C280.607 48.2556 283.442 49.2692 286.393 50.0113L287.118 50.1922C288.671 50.5751 290.358 50.9522 292.011 51.0707C292.282 51.1755 292.575 51.2642 292.895 51.3422C294.4 51.7079 295.962 51.8235 297.505 51.6944C299.007 51.5681 300.093 50.049 299.265 48.6266C298.661 47.5888 298.05 46.5537 297.435 45.5212C299.577 46.4139 301.789 47.1559 304.02 47.7851C306.272 48.4196 308.557 48.9547 310.844 49.4467C312.067 49.7075 313.296 49.9387 314.516 50.1995C315.389 50.385 316.731 50.4818 317.443 51.0572C318.23 51.6891 318.453 53.1625 318.752 54.0712C319.144 55.2516 319.513 56.4373 319.849 57.6364C320.518 60.0294 321.066 62.4572 321.491 64.9093C321.915 67.3641 322.2 69.8431 322.359 72.3301C322.517 74.8141 322.448 77.3151 322.703 79.7881C322.84 81.1001 324.248 81.7751 325.289 80.8591C325.411 80.7511 325.534 80.6421 325.655 80.5321L325.837 80.3661C326.727 79.5601 327.59 78.7051 328.302 77.7421C328.431 77.5651 328.554 77.3791 328.67 77.1911C328.689 77.1911 328.705 77.1861 328.724 77.1721L328.921 77.0241C331.095 75.4051 334.726 73.2951 336.846 75.9841C337.522 76.8411 337.867 77.9311 338.154 78.9841L338.658 80.8671C338.984 82.0961 339.29 83.3321 339.47 84.5901C339.876 87.4081 339.671 90.6561 337.733 92.9151C336.959 93.8181 335.892 94.4631 334.701 94.6331C334.037 94.7241 333.381 94.6111 332.723 94.5281C332.054 94.4441 331.409 94.5791 330.739 94.5141C329.675 94.4091 329.21 95.6841 329.608 96.4851C329.823 96.9151 330.076 97.2861 330.363 97.6011C330.132 97.8001 329.912 98.0151 329.699 98.2411C329.07 98.4431 328.506 98.8751 328.084 99.4481C327.742 99.9111 327.565 100.413 327.536 100.943C327.498 101.075 327.466 101.209 327.436 101.346L326.859 102.282C326.733 102.488 326.606 102.691 326.479 102.89C325.012 105.202 323.383 107.159 321.359 109.004C319.41 110.778 317.295 112.367 315.465 114.271L315.249 114.497C313.542 116.296 311.743 118.474 312.411 121.089C312.583 121.761 313.522 122.245 314.134 121.791C316.104 120.328 317.096 118.011 318.768 116.236C320.488 114.408 322.394 112.765 324.119 110.942C325.751 109.221 327.039 107.272 328.009 105.127C328.396 105.554 328.96 105.858 329.742 105.976C331.086 106.178 332.339 105.39 332.925 104.226C333.301 104.393 333.685 104.543 334.073 104.661C336.11 105.285 337.392 103.019 336.623 101.344C336.212 100.446 335.699 99.6661 335.061 99.0101C337.053 98.7361 339.08 97.7061 340.389 96.4211C343.673 93.1921 344.125 88.3381 343.386 84.0231C342.993 81.7351 342.316 79.4201 341.437 77.2721C341.284 76.8981 341.12 76.5221 340.94 76.1511C341.039 76.1481 341.141 76.1051 341.206 76.0221C341.8 75.2101 342.523 74.5451 342.964 73.6371C343.37 72.8031 343.821 71.9591 344.141 71.0906C344.799 69.3134 345.122 67.3076 345.337 65.4282C345.78 61.5807 345.609 57.7574 345.02 53.9341C344.017 47.4221 341.596 41.1903 338.029 35.722C338.223 35.6199 338.41 35.4967 338.583 35.351L338.669 35.2762L338.808 35.1504C339.826 34.229 339.738 32.5021 338.808 31.5688L338.514 31.2743C338.142 30.9047 337.822 30.6119 337.221 30.2094C337.132 30.15 337.041 30.0941 336.95 30.0419C337.264 29.4606 337.373 28.7809 337.154 28.031C336.391 25.4187 332.633 25.5112 330.252 26.6504C327.617 24.2981 324.695 22.256 321.529 20.6025C313.986 16.6662 305.458 13.9211 297.131 12.2433ZM336.117 81.0471C334.708 80.5881 332.838 81.5531 331.572 82.1341C329.967 82.8701 328.602 83.9591 327.279 85.1101C326.621 85.6851 326.503 86.6261 326.666 87.4301C326.683 87.5111 326.699 87.5941 326.718 87.6781C326.892 88.5351 327.849 89.2101 328.696 89.1861C330.467 89.1381 331.311 87.6081 332.314 86.3121C332.432 86.5211 332.58 86.7151 332.763 86.8601L332.886 86.9571C333.302 87.2741 333.761 87.5271 334.311 87.5031C334.701 87.4841 335.074 87.3851 335.418 87.2041C336.278 86.7501 336.657 85.6371 336.423 84.7311C336.278 84.1611 335.945 83.7141 335.51 83.4051L335.672 83.2941C336.019 83.0521 336.336 82.7981 336.583 82.4221L336.638 82.3331H336.617C336.886 81.8701 336.711 81.2411 336.117 81.0471Z" fill="black"/>
<path fill-rule="evenodd" clip-rule="evenodd" d="M269.781 108.104C271.761 108.678 273.886 108.729 275.904 108.137C277.735 107.599 279.615 106.417 280.962 104.852C282.159 103.462 282.934 101.772 282.903 99.9691C282.9 99.7631 282.826 99.5911 282.713 99.4571C282.591 99.3141 282.421 99.2151 282.239 99.1721C282.051 99.1281 281.853 99.1441 281.684 99.2211C281.531 99.2901 281.4 99.4081 281.318 99.5811C281.111 99.8531 280.905 100.121 280.698 100.381C279.033 102.438 277.421 103.975 274.917 104.526C273.559 104.825 272.202 104.692 270.958 104.236C269.625 103.747 268.421 102.888 267.477 101.789C267.05 101.292 266.547 101.09 266.054 101.086C265.496 101.082 264.945 101.342 264.529 101.756C264.121 102.164 263.848 102.718 263.823 103.297C263.801 103.805 263.967 104.336 264.408 104.81C265.861 106.371 267.744 107.514 269.781 108.104ZM269.841 82.3491C267.812 83.5831 264.719 86.4601 266.903 89.5201C269.473 92.2181 273.173 89.1251 274.997 87.7261C276.687 86.6411 278.587 89.4301 277.018 90.6961C263.842 100.454 258.494 82.6711 268.815 80.8981C269.951 80.7021 270.373 81.9671 269.841 82.3491ZM288.827 76.9181C289.48 76.5011 290.247 76.3581 291.097 76.7451C291.762 77.0471 292.928 78.0551 293.739 79.3801C294.294 80.2861 294.687 81.3501 294.605 82.4571C294.586 82.7141 294.681 82.9041 294.831 83.0441C294.95 83.1551 295.121 83.2371 295.321 83.2621C295.492 83.2841 295.683 83.2641 295.838 83.2161C296.133 83.1231 296.289 82.9321 296.348 82.7761C296.916 81.2671 296.672 79.5831 296.035 78.0641C295.176 76.0141 293.616 74.2961 292.594 73.7431C290.844 72.7951 288.781 72.7511 287.029 73.7171C285.538 74.5391 284.606 75.8651 283.679 77.2181C283.482 77.5051 283.286 77.7911 283.084 78.0711C282.678 78.6331 282.638 79.1901 282.795 79.6681C282.969 80.1971 283.412 80.6441 283.966 80.8771C284.479 81.0931 285.073 81.1241 285.6 80.9021C286.044 80.7141 286.452 80.3491 286.71 79.7281C287.145 78.6841 287.869 77.5311 288.827 76.9181ZM255.696 79.2421C256.143 79.4751 256.493 79.5451 256.988 79.3971C257.262 79.3151 257.533 79.1571 257.745 78.9451C257.956 78.7341 258.107 78.4731 258.166 78.1831C258.311 77.4671 258.703 76.7971 259.261 76.3601C259.737 75.9871 260.339 75.7891 261.007 75.9011C261.727 76.0211 262.414 76.4831 262.887 77.0281C263.045 77.2101 263.168 77.4171 263.293 77.6231C263.526 78.0081 263.752 78.3651 264.074 78.6481C264.195 78.7551 264.379 78.8301 264.557 78.8301C264.629 78.8301 264.702 78.8181 264.772 78.7961C265.489 78.0761 265.627 77.5301 265.604 76.9881C265.58 76.4201 265.356 75.8451 264.994 75.3091C264.145 74.0501 262.534 73.0181 261.446 72.7841C259.957 72.4641 258.478 72.8481 257.292 73.6801C256.072 74.5361 255.168 75.8651 254.887 77.3631C254.819 77.7241 254.848 78.1131 254.985 78.4511C255.119 78.7811 255.353 79.0631 255.696 79.2421ZM285.543 63.4964C286.437 64.3674 287.495 64.5023 288.565 64.6223C289.16 64.6896 289.634 64.7438 290.101 64.8493C291.385 65.1392 292.654 65.5758 293.812 66.2045C295.022 66.8619 296.341 67.6546 297.29 68.6701C297.515 68.9118 297.728 69.1654 297.941 69.4195C298.135 69.6512 298.322 69.8743 298.519 70.0894C298.746 70.3365 298.961 70.5955 299.175 70.8537C299.307 71.0717 299.333 71.1253 299.36 71.1811C299.4 71.2649 299.446 71.3588 299.5 71.4594C299.573 71.5973 299.658 71.7482 299.748 71.8851C299.896 72.1351 299.976 72.2041 300.045 72.2351C300.16 72.2861 300.268 72.3111 300.374 72.2971C300.472 72.2841 300.566 72.2371 300.657 72.1591C301.116 71.7716 301.252 71.1352 301.238 70.4597C301.217 69.4346 300.839 68.2996 300.49 67.6018C299.68 65.9806 298.556 64.2953 297.205 63.0853C295.664 61.7042 293.977 60.6585 292.039 59.938C290.836 59.4901 289.442 59.079 288.13 59.1309C287.186 59.1683 286.284 59.4491 285.54 60.1501C285.083 60.5805 284.864 61.1927 284.864 61.8044C284.864 62.4284 285.091 63.056 285.543 63.4964ZM253.878 71.4728C253.935 71.566 254.014 71.6302 254.101 71.6688C254.193 71.7092 254.295 71.7209 254.394 71.7043C254.492 71.6878 254.585 71.6434 254.658 71.5756C254.729 71.5106 254.783 71.4244 254.807 71.3188C255.4 68.7119 256.553 66.7724 259.012 65.5217C260.221 64.9065 261.612 64.5155 262.929 64.2039C263.312 64.1133 263.716 64.0546 264.123 63.9951C265.399 63.8087 266.685 63.5953 267.517 62.5634C268.018 61.9419 268.228 61.147 268.109 60.42C267.997 59.7355 267.597 59.1079 266.871 58.7318C265.061 57.7959 262.812 58.7142 260.985 59.4966C260.849 59.5546 260.716 59.6116 260.586 59.6665C258.799 60.4211 257.169 61.4171 255.829 62.8415C254.766 63.9715 253.781 65.6421 253.385 67.3606C253.055 68.7903 253.132 70.2499 253.878 71.4728Z" fill="black"/>
<path fill-rule="evenodd" clip-rule="evenodd" d="M264.149 112.447C266.652 110.216 269.458 105.732 273.054 109.28C273.943 110.283 274.303 112.531 275.663 112.971C277.469 113.558 279.26 111.646 279.875 110.178C282.394 102.021 271.983 99.7844 266.052 101.102C263.154 102.292 261.02 107.083 260.891 109.584C260.808 111.264 262.23 113.735 264.149 112.447ZM245.263 99.8754C245.288 99.7674 245.322 99.6694 245.363 99.5804C246.47 99.1614 247.346 99.5884 247.887 100.386C247.869 100.584 247.81 100.785 247.773 100.981C248.191 101.862 248.567 102.951 249.134 103.712C249.245 103.72 249.361 103.708 249.472 103.676C258.857 104.656 254.275 94.8354 263.793 92.3954C271.151 91.1814 284.448 92.5724 287.919 100.232C290.656 112.468 304.574 103.942 309.144 97.5794C314.02 91.7884 317.173 84.7114 320.213 77.8444C320.855 76.3914 322.86 77.4304 322.642 78.8254C325.452 84.4634 325.358 91.2364 326.054 97.4134C327.238 109.736 328.391 127.019 316.945 134.544C302.031 151.406 264.789 157.357 247.587 141.863C241.633 129.057 242.367 113.434 245.263 99.8754Z" fill="black"/>
<path fill-rule="evenodd" clip-rule="evenodd" d="M255.059 62.3535C248.75 62.3535 245.15 63.7106 243.831 63.8163L243.791 63.8192C243.242 63.8543 242.75 63.9002 242.234 64.0999C240.335 64.8316 240.025 66.824 241.134 68.0797C241.211 70.678 240.87 73.7141 241.456 76.3201C242.179 87.3091 247.345 89.1641 250.282 89.8411C251.756 90.1811 253.503 90.3161 255.07 89.9571C257.741 89.8571 260.382 89.0211 262.642 87.5641C265.789 85.5331 268.127 82.4121 268.885 78.7091C269.245 76.9431 269.413 75.1051 269.217 73.3111L269.188 73.0641C270.211 72.5741 271.397 72.4821 272.619 72.4381C273.203 72.4181 273.778 72.3991 274.337 72.4241C274.883 72.4851 275.423 72.5661 275.965 72.6771C276.556 72.8551 277.114 73.1501 277.63 73.6161L277.665 74.2971C277.762 75.9981 277.985 77.7041 278.33 79.3731C278.838 81.8351 279.656 84.1861 281.396 85.9331C281.985 86.8131 282.714 87.5991 283.599 88.2791C286.814 90.7551 291.182 91.6641 295.19 91.3221C303.328 90.6271 308.032 84.1651 309.116 81.4031L309.181 81.2351C309.964 79.1821 310.588 76.5181 313.062 76.0761L313.589 75.9821C314.718 75.7701 315.76 75.4751 316.422 74.3731C316.712 73.8911 316.861 73.3531 316.898 72.8051C317.284 72.8341 317.67 72.8631 318.054 72.8901C321.121 73.5391 339.513 74.0891 340.981 74.0891C340.981 74.0891 343.803 75.2771 344.994 74.3571C345.82 73.7161 346.091 72.8631 345.637 71.8971C344.951 70.4427 341.786 69.568 340.381 69.291C340.381 69.291 317.706 69.4794 316.074 69.1699C315.064 68.1283 313.258 68.2708 311.748 68.1061C310.499 67.2149 308.751 66.618 307.37 66.2185C307.089 66.1118 306.81 66.0087 306.539 65.9115C304.008 65.0098 301.377 64.5322 298.706 64.2757C295.951 64.0138 293.189 64.1323 290.451 64.5076C289.297 64.6642 288.153 64.8667 287.018 65.1315C284.986 65.3996 282.965 65.8411 280.932 66.3648L280.525 66.4706C278.384 67.0322 276.183 67.5179 273.967 67.1372C272.162 66.8293 270.427 66.1346 268.763 65.3834L268.547 65.2851C264.888 63.6142 259.175 62.3535 255.059 62.3535ZM287.238 68.4619C288.588 68.1649 289.165 70.2467 287.81 70.5445C286.852 70.7554 286.039 71.2391 285.49 72.0581L285.432 72.1481C284.695 73.3201 282.832 72.2381 283.574 71.0574C284.409 69.7291 285.706 68.7988 287.238 68.4619ZM247.703 67.1709C248.179 66.8356 248.899 67.0845 249.176 67.5583C249.48 68.0801 249.28 68.661 248.835 69.0023L248.789 69.0356C248.38 69.3239 247.982 69.8405 247.932 70.3698L247.928 70.436C247.874 71.8213 245.722 71.8283 245.776 70.436C245.828 69.074 246.617 67.936 247.703 67.1709Z" fill="black"/>
<path fill-rule="evenodd" clip-rule="evenodd" d="M188.752 293.091C188.163 287.622 187.8 282.114 187.592 276.618C187.384 271.128 187.656 265.57 187.776 260.078C188.019 248.905 188.414 237.706 187.525 226.551C186.685 216.008 184.756 205.539 181.711 195.409C180.229 190.475 178.667 185.343 176.228 180.785C173.777 176.201 169.893 173.149 165.627 170.35C161.085 167.37 156.58 164.334 152.056 161.327C148.258 158.802 141.424 155.864 138.308 152.488C135.029 148.937 134.413 140.134 132.229 135.927C130.103 131.829 124.083 129.156 119.449 129.156C111.777 129.156 105.965 128.764 99.6568 135.863C96.5096 139.405 99.0137 142.986 95.7149 146.386C92.6819 149.511 84.9256 152.724 81.0165 154.537C76.3346 156.709 71.5346 158.627 66.665 160.335C61.6975 162.078 56.6049 163.377 51.6095 165.022C46.8214 166.598 40.5692 173.096 36.852 176.535C33.3962 179.731 32.5385 179.373 29.9113 183.257C24.1454 191.779 18.3731 200.4 13.7815 209.627C11.4944 214.223 9.27993 219.058 8.45012 224.163C7.56499 229.607 8.4426 234.868 9.87802 240.14C11.3392 245.504 15.979 250.612 17.4906 255.963C18.1872 258.429 15.7961 261.12 16.896 263.444C17.4453 264.604 18.137 265.637 18.9246 266.649C19.5314 267.428 21.8979 267.255 22.2041 268.209C22.5135 269.172 20.8014 271.171 20.7759 272.168C20.7398 273.594 20.683 275.021 20.6362 276.447L20.3595 284.881C20.1778 290.423 19.9961 295.965 19.8143 301.507C19.7549 303.316 19.6683 305.084 20.1019 306.8C19.9454 306.655 19.7966 306.497 19.6608 306.319C19.2631 305.8 18.4197 306.24 18.7572 306.848C19.3206 307.862 20.1307 308.575 21.0826 309.088C22.1888 310.719 189.709 314.363 190.533 309.594C190.996 306.918 190.154 304.053 189.817 301.394C189.467 298.625 189.051 295.867 188.752 293.091Z" fill="white"/>
<path fill-rule="evenodd" clip-rule="evenodd" d="M18.5831 224.172C18.9929 222.998 20.8675 223.506 20.4548 224.688C18.3332 230.768 19.8382 237.383 22.1319 243.187C22.5921 244.351 20.7141 244.851 20.2602 243.703C17.8474 237.598 16.3548 230.557 18.5831 224.172M32.8093 258.897C38.7926 259.739 44.7808 260.259 50.8054 260.679C51.0747 260.698 51.3077 260.657 51.509 260.569C51.3295 263.329 51.1839 266.091 51.0699 268.854C49.4273 268.808 47.7507 268.917 46.1226 268.873C43.9947 268.815 41.8692 268.708 39.7462 268.546C35.636 268.235 31.533 267.74 27.4689 267.055C25.95 266.8 24.0211 266.645 22.2911 266.14C20.6558 265.662 19.1999 264.871 18.4357 263.38C17.7854 262.118 17.6665 260.572 17.6665 259.176C17.6665 258.215 17.8315 257.239 17.931 256.271C18.0547 256.184 18.1663 256.079 18.2561 255.963C20.0613 256.533 21.9344 256.934 23.7687 257.322C26.7556 257.958 29.7861 258.472 32.8093 258.897M29.4348 236.454C29.4678 238.31 29.9809 239.995 30.9794 241.557C31.6549 242.614 29.9742 243.587 29.3033 242.537C28.1279 240.698 27.5325 238.633 27.4937 236.454C27.4714 235.202 29.4125 235.206 29.4348 236.454M182.809 256.693C183.62 256.738 184.435 256.766 185.247 256.809C185.964 257.422 186.957 257.737 187.863 257.542C187.894 257.62 187.922 257.708 187.948 257.81C188.109 258.433 188.189 259.103 188.281 259.739C188.373 260.366 188.443 260.997 188.492 261.628C188.516 261.946 188.669 262.664 188.475 262.941C188.3 263.191 187.914 263.169 187.648 263.201C186.929 263.278 186.201 263.315 185.478 263.376C184.112 263.494 182.746 263.613 181.383 263.732C180.046 263.849 178.578 263.813 177.27 264.165C177.047 261.54 176.843 258.917 176.654 256.29C178.68 256.589 180.798 256.581 182.809 256.693M12.9369 252.342C13.7521 253.917 14.5043 255.465 16.0644 256.412C16.2682 256.533 16.4963 256.599 16.7292 256.616C16.5545 257.366 16.4453 258.133 16.3483 258.842C16.1348 260.403 16.0887 262.017 16.4793 263.555C16.8602 265.053 17.4911 266.391 18.7285 267.35C19.3036 267.796 19.932 268.136 20.592 268.405C20.4803 268.718 20.4148 269.029 20.4488 269.371C20.2911 270.165 20.1868 270.973 20.0727 271.748C19.8228 273.466 19.5729 275.187 19.3764 276.915C18.9833 280.352 18.6751 283.789 18.4155 287.238C18.1559 290.678 17.9691 294.122 17.8138 297.569C17.7337 299.331 17.6634 301.093 17.5979 302.858C17.5323 304.671 17.2388 306.526 18.0394 308.208C18.6848 309.567 20.8661 309.489 21.5358 308.208C22.385 306.579 22.1351 304.645 22.1569 302.858C22.1788 301.176 22.2079 299.492 22.2443 297.809C22.3171 294.365 22.4238 290.923 22.5088 287.479C22.5913 284.117 22.6932 280.758 22.7611 277.396C22.7951 275.636 22.7975 273.876 22.8072 272.116C22.812 271.141 22.8533 270.1 22.7805 269.082C23.3871 269.226 23.9985 269.347 24.6027 269.471C29.2152 270.417 33.8761 271.107 38.5663 271.534C40.9222 271.748 43.2855 271.898 45.6487 271.983C47.386 272.046 49.1863 272.167 50.9503 272.102C50.812 276.316 50.7489 280.532 50.7562 284.748C50.761 287.789 50.8023 290.831 50.8775 293.872C50.9187 295.472 50.9527 297.071 51.0012 298.671C51.0231 299.39 51.0231 300.115 51.0716 300.831C51.0861 301.055 51.1177 301.271 51.1589 301.484C50.9988 301.938 50.8653 302.387 50.7562 302.807C50.2224 304.846 50.2224 306.805 50.4602 308.883C50.664 310.645 52.1465 312.278 54.1045 311.66C54.4224 311.56 54.7402 311.455 55.0556 311.349C57.9381 311.676 60.8376 311.752 63.7613 311.807C68.0341 311.89 72.3093 311.917 76.5845 311.939C84.9699 311.982 93.3578 312.004 101.746 312.028C118.601 312.077 135.457 312.123 152.313 312.172C156.991 312.186 161.669 312.198 166.347 312.213C168.768 312.22 171.185 312.223 173.604 312.315C174.732 312.359 175.863 312.419 176.991 312.436C178.299 312.458 179.456 312.082 180.706 311.74C181.412 311.543 181.691 310.834 181.541 310.235C182.671 310.504 184.042 309.931 184.428 308.657C184.709 307.732 184.605 306.73 184.185 305.873V305.87C183.375 300.751 182.346 295.656 181.538 290.535C180.653 284.925 179.801 279.304 179.051 273.673C178.488 269.42 178.025 272.434 177.624 268.162C179.369 268.298 181.342 267.767 183.069 267.541C184.309 267.381 185.559 267.252 186.801 267.082C186.709 268.335 186.735 269.612 186.701 270.813C186.636 273.199 186.665 275.575 186.726 277.962C186.842 282.566 187.102 279.886 187.517 284.471C187.936 289.09 188.451 293.693 189.074 298.29C189.395 300.657 189.737 303.021 190.098 305.382C190.266 306.484 190.438 307.584 190.615 308.686C190.826 309.985 190.894 311.215 191.867 312.191C192.607 312.931 194.119 312.868 194.609 311.837C195.23 310.533 194.948 309.417 194.718 308.048C194.531 306.948 194.352 305.848 194.174 304.749C193.796 302.392 193.437 300.033 193.1 297.671C192.449 293.12 191.836 288.561 191.287 283.998C190.734 279.398 190.161 282.085 189.618 277.486C189.344 275.165 189.069 272.85 188.749 270.537C188.587 269.347 188.485 268.08 188.271 266.854C188.339 266.845 188.407 266.832 188.475 266.82C189.95 266.551 191.209 265.718 191.581 264.199C191.935 262.745 191.513 261.072 191.214 259.645C190.96 258.43 190.729 256.878 189.947 255.836C192.703 252.324 194.496 247.905 195.64 243.656C196.885 239.026 197.407 234.195 197.517 229.411C197.645 223.869 197.228 218.359 196.278 212.94C196.256 211.792 196.203 210.644 196.118 209.497C195.283 198.245 191.78 184.926 180.672 179.668C180.628 179.647 180.582 179.627 180.536 179.608C179.665 178.566 178.578 177.63 177.7 176.754C176.144 175.2 174.519 173.714 172.796 172.345C169.385 169.634 165.643 167.469 161.754 165.52C157.821 163.546 153.829 161.695 149.986 159.541C146.638 157.663 143.624 155.4 140.764 152.847C137.549 149.975 135.261 146.104 134.363 141.878C134.317 141.657 133.989 141.718 133.984 141.929C133.749 149.674 138.975 156.519 144.99 160.85C152.182 166.022 160.866 168.471 168.159 173.486C169.972 174.732 171.668 176.137 173.281 177.63C170.809 177.377 168.293 177.537 165.976 178.222C165.063 178.166 164.146 178.149 163.231 178.105C161.14 178.001 159.046 177.904 156.952 177.812C152.684 177.622 148.414 177.45 144.143 177.3C135.765 177.003 127.385 176.78 119.004 176.632C102.163 176.333 85.2999 176.275 68.4611 176.763C63.8948 176.894 39.8838 175.984 37.6612 176.241C40.9295 173.411 44.5156 171.1 48.4584 169.2C53.3912 166.828 58.4889 165.246 63.7565 163.799C74.6046 160.821 85.8701 157.949 94.5515 150.383C96.7085 148.502 98.6254 146.34 100.195 143.944C101.695 141.657 103.362 138.73 103.403 135.941C103.432 133.96 100.676 133.239 99.6954 134.936C99.0864 135.987 98.7855 137.14 98.2881 138.242C97.7931 139.334 97.2059 140.388 96.5533 141.395C95.2697 143.376 93.6781 145.143 91.9457 146.737C88.2528 150.141 83.7786 152.633 79.1491 154.519C68.6383 158.799 57.1423 160.605 47.1822 166.246C42.8245 168.714 38.6536 172.12 36.0356 176.464C35.6134 176.53 35.1936 176.608 34.7739 176.695C35.0869 176.299 35.4023 175.904 35.7202 175.511C35.9288 175.253 35.6061 174.914 35.3514 175.142C30.3992 179.55 25.8377 184.309 21.7032 189.499C17.7483 194.465 14.0603 199.67 11.4495 205.485C6.75698 215.932 5.72336 227.882 8.14727 239.052C8.80723 242.096 9.73895 245.077 10.9254 247.958C11.5369 249.446 12.1993 250.912 12.9369 252.342" fill="black"/>
<path fill-rule="evenodd" clip-rule="evenodd" d="M119.847 34.4613C133.623 34.4613 150.879 50.1831 155.929 56.8733C160.174 62.4981 159.574 91.4753 159.574 108.665C159.574 112.26 157.949 119.064 157.36 122.502C155.199 135.104 145.784 145.672 127.15 145.672C111.978 145.672 100.301 140.864 89.0104 128.568C86.4345 125.763 73.8543 135.805 71.2815 132.189C64.5613 132.189 58.9422 69.3759 72.1363 50.5357C85.3304 31.6956 106.07 34.4613 119.847 34.4613Z" fill="white"/>
<path fill-rule="evenodd" clip-rule="evenodd" d="M78.4394 38.8854C86.4002 31.64 97.0057 28.1544 107.706 28.4117C113.248 28.5452 118.77 29.6011 124.004 31.4094C126.622 32.3172 129.157 33.5017 131.581 34.8416C132.454 35.3233 133.26 35.8878 134.035 36.4872L134.228 36.6378H134.231C136.31 37.3854 138.166 38.7277 139.85 40.2981C143.225 40.0287 146.627 40.3321 149.89 41.3734C154.432 42.8249 158.637 45.4828 161.59 49.2572C165.029 53.6514 166.173 58.9815 165.765 64.4837L165.69 65.4185C165.286 70.279 164.563 76.5308 160.576 79.7245C160.272 79.9673 159.938 80.1517 159.591 80.2634C162.16 84.6665 164.269 89.555 165.53 94.4921C170.347 113.35 166.644 133.016 160.852 151.191C160.377 152.689 158.113 153.684 156.96 152.22C154.903 149.604 151.914 147.608 148.551 147.235C146.476 147.004 144.411 147.422 142.451 146.48C141.682 146.108 140.939 145.502 140.406 144.764C137.096 146.019 133.532 146.611 129.997 146.465C124.195 146.227 117.994 144.218 114.002 139.81C113.362 139.102 113.199 138.308 113.347 137.592C113.847 137.413 114.361 137.28 114.891 137.197C119.952 140.181 125.531 142.175 131.527 142.3C134.992 142.372 138.371 141.888 141.18 139.723C141.788 139.255 142.347 138.736 142.864 138.179C148.737 134.399 152.878 127.979 154.847 121.102C156.681 114.69 156.456 108.012 155.825 101.434L155.492 97.963C155.007 92.8684 154.557 87.7585 154.431 82.6421L154.469 82.6402V82.6402C155.709 82.5601 155.718 80.6175 154.469 80.6984C151.237 80.9076 148.03 80.3772 144.808 80.6083C144.781 79.0847 144.672 77.5679 144.224 76.0984C143.969 75.2588 142.507 75.0933 142.352 76.0984C142.145 77.4431 142.07 78.7803 142.047 80.1311C137.226 80.067 132.409 79.6612 127.587 79.8279C126.697 78.8789 126.414 77.196 125.998 76.0253C125.937 75.853 125.877 75.6831 125.814 75.5108C125.448 77.1836 124.93 78.8199 124.248 80.4216L123.065 80.4257C116.355 80.4571 109.509 80.6578 102.957 82.0518C102.501 81.702 102.23 81.0918 102.157 80.5377C101.682 76.9317 101.003 73.4217 99.8011 69.9854L99.6291 69.5005C99.615 69.4603 99.6002 69.4176 99.5847 69.3726C98.6988 70.803 97.6419 72.1363 96.4892 73.3779C95.8098 74.1097 95.0974 74.8095 94.3664 75.4894C93.6562 76.2783 92.9222 77.0552 92.2108 77.8465C92.2387 77.9905 92.263 78.1366 92.2826 78.2854C92.5003 79.9274 92.5228 81.5928 92.3634 83.2412C92.0752 86.2212 91.2342 89.0926 89.8832 91.7491L89.8405 92.015C89.6353 93.2599 89.3434 94.5465 88.6618 95.4839C89.5125 96.4374 90.1678 97.5762 90.5478 98.8416C90.886 99.9681 89.3281 100.944 88.5201 100.022C87.8783 99.2901 87.1652 98.6841 86.382 98.2005C86.3325 98.2678 86.2432 98.3008 86.143 98.2447C83.9617 97.0335 80.2567 97.4 78.0779 98.5408C75.3677 99.9584 74.3098 102.869 74.6106 105.818C74.8994 108.636 76.132 111.93 78.5219 113.374C79.6186 114.037 80.4727 114.092 81.6373 113.774C82.0097 113.673 82.4714 113.363 82.6695 113.209L82.8645 113.052C83.628 112.449 84.3391 112.035 85.2404 112.02C86.1622 111.732 87.0887 112.131 87.4412 113.098L87.4629 113.16C87.6279 113.653 87.9288 114.272 87.8633 115.025C87.7954 115.83 87.4265 116.563 86.8758 117.153C86.7811 117.255 86.6792 117.357 86.5749 117.452C96.0619 127.727 97.2799 143.737 92.4151 156.572C92.204 157.136 91.9784 157.691 91.743 158.242C90.9302 160.131 87.8002 159.546 87.4023 157.674C87.2834 157.114 87.1524 156.555 87.0092 156.002C86.7461 154.979 86.4446 153.966 86.1048 152.968L85.9756 152.594C85.6869 151.769 85.4175 150.936 85.1264 150.111L85.0973 150.017C85.0863 149.979 85.0742 149.936 85.0609 149.888L84.5683 150.963V150.963L83.0713 154.208C82.3707 155.723 80.1449 154.9 80.0622 153.44L80.0602 153.39C80.0529 153.121 80.0432 152.854 80.0262 152.589C79.9195 150.606 79.5774 148.679 79.0339 146.793L78.8378 147.037C75.9179 150.648 72.4911 154.033 67.7902 154.866C66.611 155.075 65.2765 153.842 66.0869 152.65C66.4218 152.157 66.7445 151.652 67.0502 151.14C66.7857 151.016 66.5358 150.888 66.3053 150.757C64.5219 149.754 63.037 148.327 61.8093 146.708C59.2058 143.276 58.2741 138.955 58.046 134.727C57.8034 130.258 58.1965 125.547 59.4169 121.236C59.9459 119.372 60.6616 117.583 61.489 115.847C61.4308 115.692 61.375 115.537 61.3192 115.381C60.4263 112.891 59.6935 110.345 59.0845 107.769C57.8568 102.57 57.1968 97.2058 57.1168 91.8634C56.9712 82.2926 58.6211 72.5689 62.098 63.6438C65.689 54.4395 71.09 45.5726 78.4394 38.8854ZM73.9676 122.564C73.3082 121.525 71.6583 122.461 72.2706 123.507L72.2934 123.544C73.3392 125.192 73.8293 127.066 74.431 128.904C74.8168 130.086 76.6924 129.581 76.3017 128.387L76.1724 127.988C75.5736 126.125 75.0274 124.231 73.9676 122.564ZM79.7106 102.737L80.1486 102.525C81.5305 101.865 82.7413 101.416 84.374 101.992C86.5601 102.761 88.9015 105.211 87.4239 107.587C86.8804 108.463 85.9147 108.813 84.9199 108.606C83.2428 108.258 82.81 106.748 81.959 105.507L81.8125 105.297C81.2936 104.547 80.6375 103.509 79.7736 103.215C79.5771 103.147 79.4946 102.842 79.7106 102.737ZM80.9436 52.2842L81.0846 52.1577C82.0236 51.3275 80.6455 49.9585 79.7113 50.7838C75.4361 54.5631 73.9512 60.4784 71.7335 65.5199C71.2361 66.6534 72.9079 67.6438 73.4101 66.5005C75.5256 61.6897 76.9297 55.935 80.9436 52.2842V52.2842ZM132.319 50.6308C131.202 50.1272 130.225 51.7535 131.299 52.289L131.339 52.3081C135.114 54.0145 136.72 57.8787 138.259 61.4662C138.749 62.6119 140.421 61.624 139.935 60.488L139.658 59.8443C138.053 56.1472 136.18 52.3788 132.319 50.6308ZM138.236 48.2956C137.052 47.8854 136.545 49.7593 137.72 50.1695C140.92 51.2836 143.116 53.6866 144.967 56.4343C145.661 57.4635 147.342 56.4925 146.641 55.4537C144.492 52.2642 141.939 49.5869 138.236 48.2956Z" fill="black"/>
<path fill-rule="evenodd" clip-rule="evenodd" d="M131.737 128.629C130.106 127.963 128.651 126.853 127.587 125.434C127.217 124.941 127.121 124.421 127.199 123.944C127.286 123.409 127.603 122.923 128.034 122.598C128.468 122.271 129.01 122.11 129.533 122.192C129.989 122.264 130.442 122.513 130.801 123.03L130.875 123.134C131.508 123.99 132.332 124.692 133.272 125.145C134.177 125.581 135.189 125.785 136.237 125.667C138.232 125.441 139.608 124.362 141.069 122.896C141.251 122.71 141.432 122.52 141.614 122.326C141.729 122.15 141.889 122.037 142.066 121.977C142.263 121.912 142.486 121.915 142.689 121.987C142.886 122.055 143.062 122.185 143.18 122.359C143.292 122.523 143.356 122.727 143.335 122.96C143.201 124.48 142.407 125.836 141.279 126.9C140.027 128.083 138.366 128.901 136.803 129.188C135.081 129.504 133.326 129.277 131.737 128.629V128.629ZM137.616 105.191C139.448 106.305 142.24 108.903 140.269 111.665C137.949 114.1 134.608 111.308 132.962 110.045C131.436 109.066 129.721 111.584 131.137 112.726C143.032 121.536 147.859 105.482 138.542 103.881C137.517 103.704 137.136 104.846 137.616 105.191ZM116.3 94.9427C116.503 92.4289 120.33 91.8581 120.711 94.3456C121.051 96.5738 120.65 98.6208 119.647 100.627C118.688 102.543 116.279 101.649 116.096 99.9041C115.852 97.5647 116.174 96.5064 116.3 94.9427ZM145.432 93.8295C145.966 93.1305 146.736 92.6533 147.659 92.923C150.543 93.766 149.693 97.8615 148.68 99.855C148.13 100.938 146.351 101.212 145.547 100.259C144.237 98.7045 143.61 95.6003 145.275 94.0691C145.32 93.99 145.371 93.9101 145.432 93.8295ZM119.606 83.9435L120.062 83.8637C121.471 83.6199 123.223 83.3856 124.22 84.519C124.749 85.12 124.931 86.237 124.22 86.8123C122.97 87.8244 121.588 87.4322 120.09 87.5179C118.855 87.5888 117.669 87.7931 116.48 88.1332C113.871 88.8791 111.745 90.2408 109.517 91.736C109.225 91.9321 108.926 91.5581 109.066 91.2845C110.352 88.7643 112.844 86.6941 115.341 85.4321C116.674 84.7585 118.132 84.1998 119.606 83.9435ZM142.803 82.814L143.152 82.8854C146.946 83.6787 151.876 85.2636 153.672 88.9918C153.741 89.519 153.668 89.6319 153.61 89.7058L153.59 89.7303C153.542 89.7934 153.503 89.8802 153.274 89.952C153.211 89.9369 153.147 89.9209 153.082 89.9039C152.259 89.688 151.607 89.3906 150.976 89.0819L150.292 88.7448C149.499 88.3556 148.698 87.9805 147.85 87.7036C146.039 87.1128 144.177 86.6966 142.286 86.4744C141.876 86.4263 141.481 86.2879 141.17 86.0507C140.874 85.8256 140.648 85.5139 140.545 85.0995C140.412 84.5633 140.45 84.1574 140.738 83.6737C140.954 83.3104 141.264 83.0586 141.619 82.914C141.981 82.7666 142.393 82.7318 142.803 82.814Z" fill="black"/>
<path fill-rule="evenodd" clip-rule="evenodd" d="M158.076 107.362C156.443 109.558 153.414 110.257 150.621 110.016C144.596 109.436 142.7 102.59 142.502 97.27C146.542 98.4069 142.16 90.3546 155.971 89.4692C160.839 89.0633 159.497 92.0047 161.648 94.1538C161.604 98.6642 160.853 103.565 158.076 107.362M129.38 102.18C125.823 118.844 106.345 114.88 104.299 99.8585C106.188 98.5245 105.691 95.2304 108.038 94.0369C111.758 91.6591 116.408 91.7608 120.633 91.8167C126.032 92.1878 127.571 94.4255 130.345 96.8669C130.212 98.4975 129.827 100.43 129.38 102.18M165.792 86.7093C165.592 86.6761 165.392 86.6447 165.192 86.6154C165.036 86.5268 164.853 86.4586 164.64 86.4175C164.154 86.294 163.671 86.2107 163.188 86.1658C156.265 84.6073 140.25 86.8202 139.589 92.7302C137.384 93.4664 135.477 92.8071 132.922 92.8727C130.977 84.7401 97.3518 85.8879 95.7346 90.791C95.7285 90.7893 95.7225 90.7879 95.7162 90.7859C94.1623 90.3048 91.8716 90.4209 90.0931 90.3447C86.2957 90.265 82.4938 90.6036 78.7784 91.4049C71.8209 92.511 62.3254 93.806 67.1642 102.498C67.1652 102.499 67.1659 102.501 67.1671 102.502L67.1679 102.501C68.0018 103.357 69.4171 102.668 69.4697 101.51C67.8429 97.3928 71.5173 96.8983 74.3445 95.715C81.3792 93.1868 88.5412 92.8363 95.8169 93.6183C96.3642 94.263 97.1948 94.8252 98.0726 95.1194C102.937 95.9272 100.374 99.537 103.448 100.062C102.884 112.646 118.155 119.514 127.004 111.242C130.537 107.787 131.379 102.668 132.198 98.054C132.631 97.9566 132.907 97.7197 133.067 97.4061C134.109 96.3658 134.763 95.4051 136.823 95.1194C138.883 94.8339 140.468 95.407 140.683 95.5825C140.737 95.6915 140.795 95.8007 140.863 95.9099C140.957 96.0728 141.085 96.2027 141.23 96.3049C139.196 108.835 148.92 116.76 158.737 110.261C163.003 106.247 163.904 100.102 164.082 94.6164C164.66 94.2674 165.026 93.5909 164.826 92.7404C164.55 91.568 165.197 90.5529 166.227 90.0432C167.566 89.3813 167.329 86.9639 165.792 86.7093" fill="black"/>
</g>
<defs>
<clipPath id="clip0">
<rect width="420" height="305" fill="white"/>
</clipPath>
</defs>
</svg>
